<svg xmlns="http://www.w3.org/2000/svg" xmlns:xlink="http://www.w3.org/1999/xlink" width="23" height="22" viewBox="0 0 23 22"><defs><clipPath id="b"><rect width="23" height="22"/></clipPath></defs><g id="a" clip-path="url(#b)"><rect width="23" height="22" fill="#fff"/><path d="M18.594,1.668H16.677v-1a.667.667,0,0,0-1.334,0v1H6v-1a.667.667,0,0,0-1.334,0v1H2.752A2.755,2.755,0,0,0,0,4.419V18.594a2.755,2.755,0,0,0,2.752,2.752H18.594a2.755,2.755,0,0,0,2.752-2.752V4.419A2.755,2.755,0,0,0,18.594,1.668ZM2.752,3H4.669v.667A.667.667,0,0,0,6,3.669V3h9.339v.667a.667.667,0,0,0,1.334,0V3h1.918a1.419,1.419,0,0,1,1.418,1.418V6H1.334V4.419A1.419,1.419,0,0,1,2.752,3Zm15.843,17.01H2.752a1.419,1.419,0,0,1-1.418-1.418V7.338H20.012V18.594A1.419,1.419,0,0,1,18.594,20.012Z" transform="translate(1)" fill="#2f3542"/></g></svg>