<svg xmlns="http://www.w3.org/2000/svg" xmlns:xlink="http://www.w3.org/1999/xlink" width="38" height="27" viewBox="0 0 38 27"><defs><clipPath id="b"><rect width="38" height="27"/></clipPath></defs><g id="a" clip-path="url(#b)"><rect width="38" height="27" fill="none"/><g transform="translate(1.263 1.615)"><path d="M25.734,23.865H3.4a3.289,3.289,0,0,1-1.315-.277,3.515,3.515,0,0,1-1.077-.731,3.222,3.222,0,0,1-.742-1.066A3.345,3.345,0,0,1,0,20.464V6.11A3.289,3.289,0,0,1,.277,4.8a3.515,3.515,0,0,1,.731-1.077,3.222,3.222,0,0,1,1.066-.742A3.345,3.345,0,0,1,3.4,2.709H8.157V2.652A2.658,2.658,0,0,1,9.789.205,2.716,2.716,0,0,1,10.837,0h8.647a2.633,2.633,0,0,1,1.873.778,2.447,2.447,0,0,1,.573.839,2.717,2.717,0,0,1,.205,1.034v.058H26.92a3.346,3.346,0,0,1,1.326.267,3.222,3.222,0,0,1,1.066.742,3.222,3.222,0,0,1,.742,1.066,3.345,3.345,0,0,1,.267,1.326v7.04a6.171,6.171,0,0,0-1.5.019V6.11a1.87,1.87,0,0,0-1.873-1.873H21.386a.775.775,0,0,1-.778-.778V2.623A1.085,1.085,0,0,0,19.484,1.5H10.866A1.085,1.085,0,0,0,9.742,2.623v.836a.775.775,0,0,1-.778.778H3.4A1.87,1.87,0,0,0,1.528,6.11V20.464A1.87,1.87,0,0,0,3.4,22.337H24.43a6.1,6.1,0,0,0,1.3,1.527ZM15.16,20.377a7.074,7.074,0,0,1-5.874-3.118A7.093,7.093,0,0,1,8.07,13.287a7.074,7.074,0,0,1,3.118-5.874,7.1,7.1,0,0,1,7.944,0,7.028,7.028,0,0,1,1.9,1.9,7.093,7.093,0,0,1,1.216,3.972,7.075,7.075,0,0,1-3.118,5.874,7.093,7.093,0,0,1-3.972,1.216Zm0-12.6A5.5,5.5,0,0,0,11.241,9.4a5.609,5.609,0,0,0-1.614,3.92,5.5,5.5,0,0,0,1.614,3.92,5.567,5.567,0,0,0,7.84,0,5.371,5.371,0,0,0,1.614-3.92A5.5,5.5,0,0,0,19.08,9.4,5.609,5.609,0,0,0,15.16,7.782Zm10.261,1.21a1.412,1.412,0,1,1,1-.414A1.4,1.4,0,0,1,25.421,8.992Z" transform="translate(0)" fill="#2f3542"/><path d="M4.982,9.964A4.959,4.959,0,0,1,2.2,9.114,5,5,0,0,1,.392,6.922,4.976,4.976,0,0,1,.851,2.2,5,5,0,0,1,3.043.392,4.976,4.976,0,0,1,7.768.851,5,5,0,0,1,9.573,3.043a4.976,4.976,0,0,1-.459,4.725A5,5,0,0,1,6.922,9.573,4.951,4.951,0,0,1,4.982,9.964ZM2.854,4.34a.637.637,0,1,0,0,1.274H4.292V7.052a.637.637,0,0,0,1.274,0V5.613H7A.637.637,0,1,0,7,4.34H5.566V2.9a.637.637,0,0,0-1.274,0V4.34Z" transform="translate(25.365 14.421)" fill="#2f3542"/></g></g></svg>