<svg xmlns="http://www.w3.org/2000/svg" xmlns:xlink="http://www.w3.org/1999/xlink" width="19" height="17" viewBox="0 0 19 17"><defs><clipPath id="b"><rect width="19" height="17"/></clipPath></defs><g id="a" clip-path="url(#b)"><rect width="19" height="17" fill="none"/><g transform="translate(1)"><path d="M1764.641,417.564l-.68-.68a2.607,2.607,0,0,0-3.688,0l-10.339,10.339a.574.574,0,0,0-.148.254l-1.36,4.909a.578.578,0,0,0,.713.713l4.908-1.36a.571.571,0,0,0,.255-.148l10.339-10.339A2.61,2.61,0,0,0,1764.641,417.564Zm-14.825,14.145.836-3.016,2.18,2.18Zm4.109-1.381L1751.2,427.6l8.461-8.462,2.729,2.729Zm9.9-9.9-.614.615-2.729-2.729.614-.615a1.448,1.448,0,0,1,2.049,0l.68.68A1.45,1.45,0,0,1,1763.821,420.432Z" transform="translate(-1748.405 -416.12)" fill="#fff"/></g></g></svg>