<svg xmlns="http://www.w3.org/2000/svg" xmlns:xlink="http://www.w3.org/1999/xlink" width="43" height="38" viewBox="0 0 43 38"><defs><clipPath id="a"><rect width="41.079" height="36.174" fill="none"/></clipPath><clipPath id="c"><rect width="43" height="38"/></clipPath></defs><g id="b" clip-path="url(#c)"><rect width="43" height="38" fill="none"/><g transform="translate(1 1)"><g clip-path="url(#a)"><path d="M40.08,25.5a1.486,1.486,0,0,1-.183-.714c-.014-1.966.019-3.932-.022-5.9a7.866,7.866,0,0,0-.314-2.085,4.186,4.186,0,0,0-3.52-3.156,24.1,24.1,0,0,0-2.6-.149c-.153-.007-.307,0-.479,0,0-.988.01-1.91,0-2.832a1.882,1.882,0,0,1,.488-1.585c.576-.556.447-1.364.415-2.1a1.81,1.81,0,0,0-1.119-1.72,4.849,4.849,0,0,0-3.673,0c-1.3.544-1.646,2.816-.638,3.938a1.52,1.52,0,0,1,.41,1.172c-.021.855-.006,1.711-.006,2.567V13.5c-.44,0-.839-.025-1.233.008-.329.027-.462-.093-.552-.406-.694-2.412-1.405-4.818-2.112-7.226l-.605-2.062c.137-.067.234-.11.327-.161A1.93,1.93,0,0,0,25.671,1.6,1.822,1.822,0,0,0,24.129.06a25.334,25.334,0,0,0-2.8-.038.529.529,0,0,0-.517.566.568.568,0,0,0,.527.6,2.256,2.256,0,0,0,.36.012c.682,0,1.364-.011,2.046.007a.711.711,0,0,1,.744.73.714.714,0,0,1-.746.722c-.107.007-.214,0-.321,0H6.449a3.28,3.28,0,0,1-.44-.016.684.684,0,0,1-.627-.628.685.685,0,0,1,.505-.765,2.146,2.146,0,0,1,.555-.05q6.1,0,12.2,0a2.268,2.268,0,0,0,.44-.016.56.56,0,0,0,.505-.58A.56.56,0,0,0,19.087.02a1.9,1.9,0,0,0-.4-.018H12.47c-2.113,0-4.225-.008-6.338,0A1.944,1.944,0,0,0,4.19,1.6,1.913,1.913,0,0,0,5.422,3.74c.254.1.266.241.266.453,0,3.035-.007,6.071.006,9.106a.467.467,0,0,1-.346.492c-.713.33-1.425.668-2.116,1.043a3.044,3.044,0,0,0-1.3,1.324,3.542,3.542,0,0,0,.15,3.236A.5.5,0,0,1,2.025,20,8.662,8.662,0,0,0,.479,23.012C.28,23.729.157,24.467,0,25.2v1.6c.026.143.059.284.076.428a9.912,9.912,0,0,0,1.155,3.643,10.118,10.118,0,0,0,17.455.551.553.553,0,0,1,.54-.3q3.811.016,7.622,0a.464.464,0,0,1,.533.375,7.055,7.055,0,1,0,12.7-6M29.153,6.963a.85.85,0,0,1,.891-.761,15.862,15.862,0,0,1,1.719,0,.9.9,0,0,1,.912.96c.05,1.124-.032,1.687-1.513,1.6-.093-.005-.187,0-.28,0h0c-.267,0-.534.012-.8,0a1.138,1.138,0,0,1-.461-.105c-.546-.3-.553-.754-.467-1.688m2.582,6.5H30.066V9.993h1.668ZM16.527,3.871h.391q2.907,0,5.814,0c.206,0,.373-.013.452.259q1.331,4.594,2.685,9.181a1.37,1.37,0,0,1,.026.167H16.527Zm-9.6.021h8.344v9.57a4.706,4.706,0,0,1-1.262-.016,13.5,13.5,0,0,0-6.968-.211.556.556,0,0,1-.114-.005Zm.692,12.933c.06.352.366.539.8.464a8.727,8.727,0,0,1,7.174,1.728,8.529,8.529,0,0,1,3.433,7.171,8.835,8.835,0,0,1-7.033,8.572A8.918,8.918,0,0,1,5.928,18.174c.058-.032.118-.063.175-.1a.605.605,0,0,0,.3-.842.582.582,0,0,0-.867-.2c-.7.44-1.373.919-2.055,1.386-.117.08-.22.182-.331.275a1.953,1.953,0,0,1,.6-2.777,11.546,11.546,0,0,1,4.192-1.631A11.758,11.758,0,0,1,18.682,17.7a10.932,10.932,0,0,1,3,5.305,1.962,1.962,0,0,1-1.453,2.343,10.161,10.161,0,0,0-8.64-9.306,9.676,9.676,0,0,0-3.388.075c-.435.084-.645.345-.583.71m19.353,13.08h-7.42c.18-.7.371-1.4.528-2.1.084-.376,0-.847.195-1.125.182-.255.657-.287.983-.456a3.225,3.225,0,0,0,1.538-3.8A13.168,13.168,0,0,0,17.2,14.954c-.086-.056-.167-.121-.326-.236.183-.008.281-.017.379-.017q8.663,0,17.327,0a3.971,3.971,0,0,1,3.166,1.369c.12.138.219.293.386.521-.814,0-1.541-.01-2.268,0a3.738,3.738,0,0,0-.949.1,2.112,2.112,0,0,0,.243,4.1,7.592,7.592,0,0,0,1.4.047.589.589,0,0,0,.582-.6.606.606,0,0,0-.634-.588c-.294-.012-.589.008-.882-.007a.939.939,0,0,1-.995-.934.918.918,0,0,1,1-.917c.9-.013,1.792,0,2.687-.009.221,0,.325.076.335.288.011.24.027.481.027.721q0,2.266,0,4.532v.438c-2.517-1.919-5.19-2.347-7.955-.885s-3.912,3.9-3.761,7.022M34,34.971a5.858,5.858,0,1,1,5.877-5.86A5.881,5.881,0,0,1,34,34.971" transform="translate(0 0.001)" fill="#2f3542"/><path d="M64.042,267.184A4.971,4.971,0,1,0,69,262.231a5,5,0,0,0-4.958,4.953M69,263.438a3.76,3.76,0,1,1-3.757,3.751A3.773,3.773,0,0,1,69,263.438" transform="translate(-58.894 -241.15)" fill="#2f3542"/><path d="M385.692,321.418a3.264,3.264,0,1,0,3.278,3.262,3.3,3.3,0,0,0-3.278-3.262m.024,5.324a2.06,2.06,0,1,1,2.049-2.085,2.076,2.076,0,0,1-2.049,2.085" transform="translate(-351.681 -295.578)" fill="#2f3542"/></g></g></g></svg>